<?xml version="1.0" encoding="UTF-8" standalone="no"?>
<!-- Generator: Adobe Illustrator 15.0.2, SVG Export Plug-In . SVG Version: 6.00 Build 0)  -->

<svg
   xmlns:dc="http://purl.org/dc/elements/1.1/"
   xmlns:cc="http://creativecommons.org/ns#"
   xmlns:rdf="http://www.w3.org/1999/02/22-rdf-syntax-ns#"
   xmlns:svg="http://www.w3.org/2000/svg"
   xmlns="http://www.w3.org/2000/svg"
   xmlns:sodipodi="http://sodipodi.sourceforge.net/DTD/sodipodi-0.dtd"
   xmlns:inkscape="http://www.inkscape.org/namespaces/inkscape"
   version="1.1"
   id="Layer_1"
   x="0px"
   y="0px"
   width="1600"
   height="1600"
   viewBox="0 0 1599.9999 1599.9999"
   enable-background="new 0 0 595.28 595.28"
   xml:space="preserve"
   inkscape:version="0.91 r13725"
   sodipodi:docname="icon.svg"><metadata
     id="metadata27"><rdf:RDF><cc:Work
         rdf:about=""><dc:format>image/svg+xml</dc:format><dc:type
           rdf:resource="http://purl.org/dc/dcmitype/StillImage" /><dc:title></dc:title></cc:Work></rdf:RDF></metadata><defs
     id="defs25" /><sodipodi:namedview
     pagecolor="#ffffff"
     bordercolor="#666666"
     borderopacity="1"
     objecttolerance="10"
     gridtolerance="10"
     guidetolerance="10"
     inkscape:pageopacity="0"
     inkscape:pageshadow="2"
     inkscape:window-width="1871"
     inkscape:window-height="1056"
     id="namedview23"
     showgrid="false"
     inkscape:zoom="0.39645207"
     inkscape:cx="297.64001"
     inkscape:cy="903.00954"
     inkscape:window-x="49"
     inkscape:window-y="24"
     inkscape:window-maximized="1"
     inkscape:current-layer="Layer_1" /><g
     id="g4740"
     transform="matrix(2.6878285,0,0,2.6878285,-0.00537142,-2700.5204)"><rect
       style="fill:#00939b"
       inkscape:export-ydpi="19.35"
       inkscape:export-xdpi="19.35"
       inkscape:export-filename="/home/aristath/wordpress-reset/assets/icon256x256.png"
       id="rect3"
       height="595.276"
       width="595.276"
       y="1004.722"
       x="0.0020000001" /><g
       transform="translate(0,1004.72)"
       id="g5"><path
         style="fill:#d6d9a5"
         inkscape:connector-curvature="0"
         id="path7"
         d="M 297.64,550.429 C 158.251,550.429 44.851,437.03 44.851,297.64 c 0,-139.39 113.4,-252.788 252.789,-252.788 139.389,0 252.789,113.399 252.789,252.788 0,139.389 -113.4,252.789 -252.789,252.789 z m 0,-487.591 c -129.471,0 -234.802,105.331 -234.802,234.802 0,129.471 105.331,234.802 234.802,234.802 129.471,0 234.802,-105.331 234.802,-234.802 0,-129.471 -105.331,-234.802 -234.802,-234.802 z" /></g><g
       transform="translate(0,1004.72)"
       id="g9"><g
         id="g11"><g
           id="g13"><path
             style="fill:#d6d9a5"
             inkscape:connector-curvature="0"
             id="path15"
             d="m 205.025,377.959 c -1.771,0 -3.504,-0.769 -4.698,-2.185 -43.634,-51.734 -39.098,-128.544 10.332,-174.86 23.654,-22.166 54.519,-34.37 86.915,-34.37 24.122,0 47.402,6.694 67.647,19.408 l 15.505,-14.527 c 1.734,-1.62 4.249,-2.088 6.438,-1.236 2.207,0.861 3.72,2.916 3.889,5.277 l 4.824,66.456 c 0.143,0.528 0.221,1.086 0.221,1.663 0,3.411 -2.556,6.108 -6.197,6.144 -0.318,-0.012 -0.601,-0.015 -0.906,-0.057 l -67.215,-9.289 c -2.347,-0.324 -4.297,-1.968 -5.017,-4.227 -0.714,-2.256 -0.071,-4.726 1.656,-6.343 l 12.798,-11.995 c -10.602,-4.683 -22.135,-7.131 -33.799,-7.131 -21.109,0 -41.216,7.95 -56.625,22.384 -31.52,29.542 -35.012,79.062 -7.938,112.736 1.578,1.961 1.799,4.686 0.558,6.879 -1.236,2.187 -3.678,3.394 -6.187,3.057 l -17.376,-2.399 1.218,16.807 c 0.145,0.531 0.223,1.086 0.223,1.662 0,3.393 -2.749,6.145 -6.145,6.145 -0.03,10e-4 -0.073,-0.002 -0.121,10e-4 z m 92.549,-199.126 c -29.264,0 -57.146,11.026 -78.514,31.046 -39.229,36.764 -47.162,94.786 -21.781,140.028 l -0.234,-3.243 c -0.138,-1.848 0.57,-3.66 1.926,-4.927 1.35,-1.271 3.192,-1.868 5.04,-1.604 l 11.149,1.539 c -21.865,-37.724 -15.409,-86.975 17.233,-117.563 17.689,-16.579 40.784,-25.708 65.025,-25.708 16.639,0 33.043,4.344 47.449,12.562 1.698,0.966 2.833,2.683 3.062,4.617 0.228,1.938 -0.48,3.87 -1.902,5.203 l -9.805,9.192 46.935,6.487 -3.426,-47.261 -9.631,9.024 c -2.106,1.968 -5.286,2.202 -7.669,0.588 -19.129,-13.071 -41.558,-19.98 -64.857,-19.98 z" /></g></g><g
         id="g17"><g
           id="g19"><path
             style="fill:#d6d9a5"
             inkscape:connector-curvature="0"
             id="path21"
             d="m 216.229,428.736 c -0.756,0 -1.513,-0.139 -2.238,-0.423 -2.208,-0.861 -3.721,-2.917 -3.889,-5.277 L 205.2,355.361 c -0.138,-1.848 0.57,-3.66 1.926,-4.926 1.35,-1.272 3.198,-1.866 5.04,-1.605 l 67.21,9.288 c 2.346,0.325 4.296,1.969 5.016,4.225 0.714,2.259 0.073,4.726 -1.656,6.345 l -5.97,5.599 c 6.834,1.776 13.873,2.673 21.019,2.673 21.175,0 41.347,-7.974 56.798,-22.453 28.376,-26.584 34.58,-68.664 15.091,-102.322 -1.176,-2.031 -1.092,-4.557 0.216,-6.504 1.309,-1.944 3.589,-2.991 5.94,-2.661 l 15.476,2.139 -1.584,-21.862 c -0.199,-2.739 1.439,-5.275 4.02,-6.217 2.586,-0.945 5.467,-0.057 7.08,2.167 37.479,51.729 30.553,123.705 -16.104,167.423 -23.635,22.147 -54.482,34.346 -86.86,34.346 0,0 0,0 -0.006,0 -19.687,0 -39.212,-4.587 -56.756,-13.297 l -20.666,19.36 c -1.16,1.084 -2.672,1.657 -4.201,1.657 z m 1.775,-66.693 3.42,47.259 14.437,-13.525 c 1.925,-1.812 4.794,-2.178 7.128,-0.918 16.747,9.072 35.72,13.867 54.86,13.867 0.006,0 0.006,0 0.006,0 29.245,0 57.111,-11.017 78.46,-31.022 35.462,-33.232 45.519,-84.534 27.655,-127.806 l 0.138,1.941 c 0.138,1.848 -0.569,3.66 -1.926,4.926 -1.355,1.27 -3.222,1.84 -5.04,1.605 l -11.461,-1.584 c 15.486,36.512 6.906,78.946 -22.699,106.688 -17.736,16.621 -40.892,25.774 -65.199,25.774 -12.061,0.003 -23.851,-2.226 -35.042,-6.624 -1.962,-0.771 -3.396,-2.49 -3.792,-4.561 -0.396,-2.07 0.293,-4.2 1.836,-5.641 l 4.152,-3.894 -46.933,-6.485 z" /></g></g></g></g></svg>